<svg width="60" height="60" viewBox="0 0 60 60" fill="none" xmlns="http://www.w3.org/2000/svg">
<rect width="60" height="60" rx="20" fill="#FFE0EB"/>
<path d="M39.9608 24.3209V23.9652C39.9608 22.3302 38.6306 21 36.9956 21H19.9652C18.3302 21.0001 17 22.3302 17 23.9652V24.3209H39.9608Z" fill="#FF82AC"/>
<path d="M30.5651 33.8592C30.5651 32.3211 31.0598 30.8591 31.9731 29.6543H17V33.7905C17 35.4255 18.3302 36.7557 19.9652 36.7557H31.1911C30.7813 35.8581 30.5651 34.8754 30.5651 33.8592ZM28.4804 32.9605H25.9212V31.437H28.4804V32.9605ZM20.4154 31.437H24.3978V32.9605H20.4154V31.437Z" fill="#FF82AC"/>
<path d="M33.5547 28.131C34.7165 27.3182 36.0967 26.8802 37.5443 26.8802C38.3822 26.8802 39.1973 27.0273 39.9608 27.3085V25.8445H17V28.131H33.5547Z" fill="#FF82AC"/>
<path d="M42.9998 33.8592C42.9998 30.8461 40.5572 28.4036 37.5441 28.4036C34.531 28.4036 32.0884 30.8461 32.0884 33.8592C32.0884 36.8724 34.531 39.3149 37.5441 39.3149C40.5572 39.3149 42.9998 36.8724 42.9998 33.8592ZM38.2795 36.7738V37.3938H37.5178V37.3939V37.3938H36.7561V36.7784C36.2956 36.6225 35.9188 36.3481 35.5508 36.079L36.4501 34.8493C36.9445 35.2109 37.1975 35.3847 37.5441 35.3847C37.7401 35.3847 37.8988 35.2914 37.9583 35.1412C38.0303 34.9594 37.9286 34.7919 37.6859 34.6932C37.6859 34.6932 36.5971 34.33 36.0937 33.8168C35.6714 33.3863 35.537 32.7794 35.6715 32.2022C35.8069 31.621 36.1993 31.1666 36.7561 30.9396V30.3246H38.2795V30.9141C38.6664 31.0216 38.9939 31.1804 39.1822 31.2826L38.4554 32.6215C37.9735 32.3599 37.5301 32.2814 37.3576 32.3404C37.1902 32.3976 37.1647 32.5067 37.1551 32.5479C37.1416 32.6061 37.1343 32.6955 37.2274 32.7993C37.3171 32.8992 38.2603 33.2822 38.2603 33.2822C39.2781 33.6965 39.7571 34.737 39.3746 35.7024C39.1759 36.2042 38.7759 36.5842 38.2795 36.7738Z" fill="#FF82AC"/>
</svg>
