<svg width="60" height="60" viewBox="0 0 60 60" fill="none" xmlns="http://www.w3.org/2000/svg">
<rect width="60" height="60" rx="20" fill="#E7EDFF"/>
<path d="M37.8386 31.2242C37.3735 31.2019 36.9106 31.2478 36.4626 31.3607L30.6934 32.6632L31.0804 24.6107C31.0998 24.2074 31.4438 23.8949 31.8472 23.9143C32.2506 23.9337 32.563 24.2777 32.5436 24.6811L32.2701 30.3722L33.0016 30.4073C35.8254 30.543 38.2331 28.3561 38.3688 25.5324C38.4786 23.2474 37.0413 21.1462 34.8705 20.4218L25.5468 17.3531L24.9441 29.8946L21.1021 30.7619C20.649 30.8524 20.2112 31.0098 19.8008 31.2298C17.5169 32.4542 16.6548 35.3084 17.8792 37.5923C18.3641 38.4969 19.1113 39.2028 20.0401 39.6338C20.5937 39.8907 21.1963 40.0365 21.8037 40.0656C22.1809 40.0837 22.56 40.0569 22.9301 39.9838L24.4759 39.635L24.415 40.9021L29.484 42.5712L38.7544 40.4784L38.7738 40.4737C39.7282 40.2308 40.6016 39.6775 41.2331 38.9159C41.8866 38.1277 42.258 37.1692 42.3073 36.1442C42.4317 33.5557 40.427 31.3486 37.8386 31.2242ZM24.7464 34.0057L20.8479 34.8858L21.1705 36.3147L24.6735 35.5239L24.5488 38.1169L22.6371 38.5486C22.3748 38.5995 22.1129 38.6178 21.8558 38.6054C20.741 38.5518 19.7186 37.9232 19.1702 36.9002C18.3275 35.3281 18.9208 33.3635 20.4929 32.5208C20.7781 32.3679 21.0819 32.2589 21.3959 32.197L24.8711 31.4127L24.7464 34.0057ZM29.6173 24.5404L28.8351 40.8153L25.9317 39.8593L26.9176 19.3464L34.4097 21.8123C35.9578 22.3289 36.9841 23.8298 36.9057 25.4621C36.8208 27.2286 35.4909 28.6461 33.8071 28.9059L34.0067 24.7514C34.0649 23.5412 33.1277 22.5093 31.9175 22.4512C30.7073 22.393 29.6754 23.3303 29.6173 24.5404ZM38.4215 39.0517L30.2982 40.8856L30.4229 38.2926L38.7863 36.4045L38.4637 34.9756L30.4958 36.7744L30.6205 34.1814L36.7944 32.7875L36.8137 32.7829C37.1239 32.704 37.4451 32.6718 37.7683 32.6874C39.55 32.773 40.9298 34.2922 40.8442 36.0738C40.7756 37.5005 39.8023 38.6961 38.4215 39.0517Z" fill="#396AFF"/>
</svg>
