<svg width="25" height="25" viewBox="0 0 25 25" fill="none" xmlns="http://www.w3.org/2000/svg">
<g clip-path="url(#clip0_78_382)">
<path d="M1.92074 10.2272H-0.863298C-1.49096 10.2272 -2 10.7362 -2 11.3639V23.8639C-2 24.491 -1.49096 25 -0.863298 25H1.92074C2.5484 25 3.05692 24.491 3.05692 23.8639V11.3639C3.05692 10.7362 2.5484 10.2272 1.92074 10.2272Z" fill="#B1B1B1"/>
<path d="M8.56863 13.6356H5.78459C5.1564 13.6356 4.64789 14.1447 4.64789 14.7723V23.8627C4.64789 24.4909 5.1564 24.9994 5.78459 24.9994H8.56863C9.19629 24.9994 9.7048 24.4904 9.7048 23.8627V14.7723C9.7048 14.1447 9.19629 13.6356 8.56863 13.6356Z" fill="#B1B1B1"/>
<path d="M15.2154 13.6356H12.4314C11.8037 13.6356 11.2952 14.1447 11.2952 14.7723V23.8627C11.2952 24.4909 11.8037 24.9994 12.4314 24.9994H15.2154C15.8436 24.9994 16.3521 24.4904 16.3521 23.8627V14.7723C16.3521 14.1447 15.8436 13.6356 15.2154 13.6356Z" fill="#B1B1B1"/>
<path d="M21.8633 10.2272H19.0793C18.4516 10.2272 17.9431 10.7362 17.9431 11.3639V23.8639C17.9431 24.4915 18.4516 25 19.0793 25H21.8633C22.491 25 23 24.4905 23 23.8639V11.3639C23 10.7362 22.491 10.2272 21.8633 10.2272Z" fill="#B1B1B1"/>
<path d="M10.8314 6.8457V8.89145C11.4505 8.85049 12.1032 8.56007 12.1032 7.87868C12.1032 7.17549 11.3877 6.96964 10.8314 6.8457Z" fill="#B1B1B1"/>
<path d="M9.05212 4.39732C9.05212 4.91434 9.4367 5.21328 10.2117 5.3686V3.51807C9.50744 3.53881 9.05212 3.95264 9.05212 4.39732Z" fill="#B1B1B1"/>
<path d="M10.5 0C7.05372 0 4.25 2.80426 4.25 6.25C4.25 9.69468 7.05372 12.4989 10.5 12.4989C13.9463 12.4989 16.75 9.69468 16.75 6.25C16.75 2.80426 13.9463 0 10.5 0ZM10.8314 9.94628V10.5862C10.8314 10.7622 10.6963 10.9378 10.5197 10.9378C10.3452 10.9378 10.2117 10.7622 10.2117 10.5862V9.94628C8.46543 9.90372 7.59681 8.86011 7.59681 8.04362C7.59681 7.63138 7.84628 7.39309 8.2367 7.39309C9.39415 7.39309 8.49415 8.81915 10.2117 8.89096V6.73138C8.67979 6.45319 7.75213 5.78138 7.75213 4.63457C7.75213 3.22979 8.92021 2.50532 10.2117 2.46489V1.91383C10.2117 1.73777 10.3452 1.56223 10.5197 1.56223C10.6963 1.56223 10.8314 1.73777 10.8314 1.91383V2.46489C11.6367 2.48617 13.2904 2.99149 13.2904 4.00479C13.2904 4.40745 12.9894 4.64468 12.6378 4.64468C11.9654 4.64468 11.975 3.53989 10.8314 3.51862V5.48191C12.1952 5.77181 13.4032 6.17447 13.4032 7.76596C13.4032 9.15 12.3702 9.85213 10.8314 9.94628Z" fill="#B1B1B1"/>
</g>
<defs>
<clipPath id="clip0_78_382">
<rect width="25" height="25" fill="white"/>
</clipPath>
</defs>
</svg>
