<svg width="60" height="60" viewBox="0 0 60 60" fill="none" xmlns="http://www.w3.org/2000/svg">
<rect width="60" height="60" rx="20" fill="#FFF5D9"/>
<path d="M38.3389 33.1611C36.9774 31.7997 35.3569 30.7918 33.5888 30.1817C35.4825 28.8775 36.7266 26.6947 36.7266 24.2266C36.7266 20.2418 33.4847 17 29.5 17C25.5153 17 22.2734 20.2418 22.2734 24.2266C22.2734 26.6947 23.5175 28.8775 25.4112 30.1817C23.6432 30.7918 22.0227 31.7997 20.6612 33.1611C18.3002 35.5221 17 38.6611 17 42H18.9531C18.9531 36.1844 23.6844 31.4531 29.5 31.4531C35.3156 31.4531 40.0469 36.1844 40.0469 42H42C42 38.6611 40.6998 35.5221 38.3389 33.1611ZM29.5 29.5C26.5922 29.5 24.2266 27.1344 24.2266 24.2266C24.2266 21.3187 26.5922 18.9531 29.5 18.9531C32.4078 18.9531 34.7734 21.3187 34.7734 24.2266C34.7734 27.1344 32.4078 29.5 29.5 29.5Z" fill="#FFBB38"/>
</svg>
