<svg width="60" height="60" viewBox="0 0 60 60" fill="none" xmlns="http://www.w3.org/2000/svg">
<rect width="60" height="60" rx="20" fill="#DCFAF8"/>
<path d="M27.6954 24.358C27.6953 24.358 27.6953 24.358 27.6953 24.3579C26.8815 24.0582 26.1793 23.812 25.5697 23.8105C25.5678 23.8105 25.5659 23.8105 25.5641 23.8105C25.5668 23.8105 25.5665 23.8105 25.5632 23.8106C25.5616 23.8107 25.5592 23.8107 25.5562 23.8108C25.4286 23.8152 24.074 23.8759 22.7313 24.7098L27.6954 24.358ZM27.6954 24.358L27.7089 24.3629C27.906 24.4356 28.1219 24.5151 28.3291 24.5845L29.4545 24.9615L30.1104 25.1812C29.8786 25.2479 29.6597 25.2894 29.4545 25.2894C28.8737 25.2894 28.1843 25.0341 27.4971 24.7797C26.8162 24.5275 26.1374 24.2762 25.5685 24.2747C25.5133 24.2762 24.2087 24.3216 22.9334 25.1313C21.2954 26.1718 20.4642 27.9811 20.4642 30.5093C20.4642 32.2952 21.1822 34.8346 22.2935 36.9787L27.6954 24.358ZM29.7695 23.4928L30.1972 24.0988C30.3378 24.047 30.4861 23.9883 30.6522 23.9227C30.7314 23.8913 30.8147 23.8584 30.9031 23.8238C31.3162 23.6623 31.8095 23.4778 32.359 23.3559L32.5918 23.8548C32.895 23.7938 33.2047 23.7573 33.5226 23.7568L29.7695 23.4928ZM29.7695 23.4928L30.1255 23.4295C30.7972 23.31 31.4397 23.0176 32.0024 22.5917M27.531 23.468C27.5454 23.5657 27.5679 23.66 27.5973 23.7503C27.0043 23.532 26.2567 23.2765 25.571 23.2747L25.5641 23.2747L25.5565 23.2747L25.5419 23.2751C25.4183 23.2783 23.9322 23.3333 22.4488 24.2547L27.531 23.468ZM30.7925 24.9421C30.8734 24.9107 30.9554 24.8782 31.0387 24.8452C31.7802 24.5518 32.6161 24.221 33.5274 24.221H33.5543L30.7925 24.9421Z" fill="#16DBCC" stroke="#16DBCC" stroke-width="2"/>
</svg>
