<svg width="60" height="60" viewBox="0 0 60 60" fill="none" xmlns="http://www.w3.org/2000/svg">
<rect width="60" height="60" rx="20" fill="#E7EDFF"/>
<path d="M41.9608 26.3209V25.9652C41.9608 24.3302 40.6306 23 38.9956 23H21.9652C20.3302 23.0001 19 24.3302 19 25.9652V26.3209H41.9608Z" fill="#396AFF"/>
<path d="M32.5651 35.8592C32.5651 34.3211 33.0598 32.8591 33.9731 31.6543H19V35.7905C19 37.4255 20.3302 38.7557 21.9652 38.7557H33.1911C32.7813 37.8581 32.5651 36.8754 32.5651 35.8592ZM30.4804 34.9605H27.9212V33.437H30.4804V34.9605ZM22.4154 33.437H26.3978V34.9605H22.4154V33.437Z" fill="#396AFF"/>
<path d="M35.5547 30.131C36.7165 29.3182 38.0967 28.8802 39.5443 28.8802C40.3822 28.8802 41.1973 29.0273 41.9608 29.3085V27.8445H19V30.131H35.5547Z" fill="#396AFF"/>
<path d="M44.9998 35.8592C44.9998 32.8461 42.5572 30.4036 39.5441 30.4036C36.531 30.4036 34.0884 32.8461 34.0884 35.8592C34.0884 38.8724 36.531 41.3149 39.5441 41.3149C42.5572 41.3149 44.9998 38.8724 44.9998 35.8592ZM40.2795 38.7738V39.3938H39.5178V39.3939V39.3938H38.7561V38.7784C38.2956 38.6225 37.9188 38.3481 37.5508 38.079L38.4501 36.8493C38.9445 37.2109 39.1975 37.3847 39.5441 37.3847C39.7401 37.3847 39.8988 37.2914 39.9583 37.1412C40.0303 36.9594 39.9286 36.7919 39.6859 36.6932C39.6859 36.6932 38.5971 36.33 38.0937 35.8168C37.6714 35.3863 37.537 34.7794 37.6715 34.2022C37.8069 33.621 38.1993 33.1666 38.7561 32.9396V32.3246H40.2795V32.9141C40.6664 33.0216 40.9939 33.1804 41.1822 33.2826L40.4554 34.6215C39.9735 34.3599 39.5301 34.2814 39.3576 34.3404C39.1902 34.3976 39.1647 34.5067 39.1551 34.5479C39.1416 34.6061 39.1343 34.6955 39.2274 34.7993C39.3171 34.8992 40.2603 35.2822 40.2603 35.2822C41.2781 35.6965 41.7571 36.737 41.3746 37.7024C41.1759 38.2042 40.7759 38.5842 40.2795 38.7738Z" fill="#396AFF"/>
</svg>
