<svg width="60" height="60" viewBox="0 0 60 60" fill="none" xmlns="http://www.w3.org/2000/svg">
<path d="M0 20C0 8.9543 8.95431 0 20 0H40C51.0457 0 60 8.95431 60 20V40C60 51.0457 51.0457 60 40 60H20C8.9543 60 0 51.0457 0 40V20Z" fill="#FFF5D9"/>
<path d="M39.9167 23.1251H34.7083V22.0834C34.7083 20.9344 33.774 20 32.625 20H26.375C25.226 20 24.2916 20.9343 24.2916 22.0834V23.125H19.0833C17.9343 23.1251 17 24.0594 17 25.2084V28.3334C17 29.4824 17.9343 30.4167 19.0833 30.4167H27.4167V29.8959C27.4167 29.608 27.6497 29.375 27.9375 29.375H31.0625C31.3504 29.375 31.5834 29.608 31.5834 29.8959V30.4167H39.9167C41.0657 30.4167 42 29.4824 42 28.3334V25.2084C42 24.0594 41.0657 23.1251 39.9167 23.1251ZM32.625 23.1251H26.375V22.0834H32.625V23.1251Z" fill="#FFBB38"/>
<path d="M41.7111 30.9787C41.5336 30.8907 41.3215 30.9111 41.1648 31.0301C40.7945 31.3104 40.3632 31.4584 39.9166 31.4584H31.5833V33.0209C31.5833 33.3087 31.3504 33.5417 31.0625 33.5417H27.9375C27.6496 33.5417 27.4166 33.3087 27.4166 33.0209V31.4584H19.0833C18.6368 31.4584 18.2055 31.3104 17.8352 31.0301C17.678 30.9101 17.4664 30.8897 17.2889 30.9787C17.1119 31.0667 17 31.2473 17 31.4452V38.7501C17 39.899 17.9343 40.8334 19.0833 40.8334H39.9167C41.0657 40.8334 42 39.8991 42 38.7501V31.4452C42 31.2473 41.8881 31.0667 41.7111 30.9787Z" fill="#FFBB38"/>
</svg>
